<svg xmlns="http://www.w3.org/2000/svg" viewBox="0 0 100 100" width="512" height="512">
  <rect width="100" height="100" fill="#FFFFFF"/>

  <path fill="#3498db" d="M65.5,62.5 c-1.5,1.8 -3.5,3.3 -5.8,4.4 c-0.9,0.4 -1.9,0.8 -2.9,1.1 c-0.5,0.2 -1,0.3 -1.5,0.4 c-0.1,0 -0.2,0 -0.3,0.1 c-0.1,0 -0.2,0 -0.3,0.1 c-0.5,0.1 -1,0.2 -1.5,0.2 c-0.1,0 -0.2,0 -0.3,0 h-0.3 c-0.5,0 -1,0 -1.5-0.1 c-0.1,0 -0.2,0 -0.3-0.1 l-0.3-0.1 c-0.5-0.1 -1-0.2 -1.5-0.3 c-0.9-0.3 -1.8-0.7 -2.6-1.1 c-2.6-1.2 -4.8-2.9 -6.5-5.1 c-2-2.6 -3.1-5.8 -3.1-9.2 c0-7.9,6.4-14.3,14.3-14.3 h1 c7.9,0,14.3,6.4,14.3,14.3 C70.7,55.7,68.5,59.7,65.5,62.5z M53.5,72.5 l-6.3,6.3 c-0.4,0.4 -1,0.4 -1.4,0 l-0.1-0.1 c-0.4-0.4 -0.4-1,0-1.4 l6.1-6.1 c0.2-0.2,0.5-0.3,0.8-0.3 c0.4,0,0.8,0.1,1.1,0.4 C53.9,71.5,53.9,72.1,53.5,72.5z"/>

  <path fill="#4CAF50" d="M58.4,30.1 c-1.2,1.4 -2.7,2.6 -4.5,3.5 c-0.7,0.3 -1.5,0.6 -2.2,0.9 c-0.4,0.1 -0.8,0.2 -1.2,0.3 c-0.1,0 -0.1,0 -0.2,0 c-0.1,0 -0.2,0 -0.2,0.1 c-0.4,0.1 -0.8,0.1 -1.2,0.1 c-0.1,0 -0.1,0 -0.2,0 c0,0 -0.1,0 -0.1,0 c-0.4,0 -0.8,0 -1.2-0.1 c-0.1,0 -0.2,0 -0.2-0.1 l-0.2-0.1 c-0.4-0.1 -0.8-0.2 -1.2-0.3 c-0.7-0.2 -1.4-0.5 -2.1-0.8 c-2-1 -3.8-2.3 -5.1-4 C29.9,30.5,29,27.9,29,25 c0-6.2,5-11.2,11.2-11.2 h0.8 c6.2,0,11.2,5,11.2,11.2 C62.2,26,60.7,28.4,58.4,30.1z M43.4,37.1 l-4.9,4.9 c-0.3,0.3 -0.8,0.3 -1.1,0 l-0.1-0.1 c-0.3-0.3 -0.3-0.8,0-1.1 l4.8-4.8 c0.2-0.2,0.4-0.2,0.6-0.2 c0.3,0,0.6,0.1,0.8,0.3 C43.7,36.3,43.7,36.8,43.4,37.1z"/>

</svg>